<svg xmlns="http://www.w3.org/2000/svg" width="28.064" height="16.693" viewBox="0 0 28.064 16.693"><defs><style>.a{fill:#003b7d;fill-rule:evenodd;}</style></defs><g transform="translate(-0.014 -0.121)"><g transform="translate(0.015 0.121)"><path class="a" d="M27.562,6.482c-8.888-8.369-17.7-8.592-26.59,0a2.549,2.549,0,0,0,0,3.555c8.814,9.11,17.7,8.962,26.59,0A2.073,2.073,0,0,0,28.3,8.26,2.3,2.3,0,0,0,27.562,6.482ZM14.3,2.186a6.3,6.3,0,1,1-6.3,6.3A6.29,6.29,0,0,1,14.3,2.186Z" transform="translate(-0.25 -0.121)"/><path class="a" d="M163.926,84A2.926,2.926,0,1,1,161,86.926,2.928,2.928,0,0,1,163.926,84Z" transform="translate(-149.872 -78.565)"/></g></g></svg>